<svg xmlns="http://www.w3.org/2000/svg" viewBox="0 0 100 100">
  <!-- Meridian ESG Icon -->
  <rect width="100" height="100" rx="20" fill="#10B981"/>
  
  <!-- E letter -->
  <rect x="15" y="25" width="20" height="5" fill="white"/>
  <rect x="15" y="25" width="5" height="25" fill="white"/>
  <rect x="15" y="37.5" width="15" height="5" fill="white"/>
  <rect x="15" y="50" width="20" height="5" fill="white"/>
  
  <!-- S letter -->
  <path d="M 40 25 Q 50 25 50 32.5 Q 50 40 40 40 Q 50 40 50 47.5 Q 50 55 40 55 L 40 50 Q 45 50 45 47.5 Q 45 45 40 45 L 40 40 Q 35 40 35 32.5 Q 35 25 45 25 Z" fill="white"/>
  
  <!-- G letter -->
  <path d="M 65 25 Q 75 25 75 30 L 70 30 Q 70 30 65 30 Q 60 30 60 40 Q 60 50 65 50 Q 70 50 70 50 L 70 45 L 65 45 L 65 40 L 75 40 L 75 55 L 65 55 Q 55 55 55 40 Q 55 25 65 25 Z" fill="white"/>
  
  <!-- Database symbol at bottom -->
  <ellipse cx="50" cy="70" rx="15" ry="4" fill="white" opacity="0.8"/>
  <ellipse cx="50" cy="75" rx="15" ry="4" fill="white" opacity="0.6"/>
  <ellipse cx="50" cy="80" rx="15" ry="4" fill="white" opacity="0.4"/>
</svg>